<mxfile host="app.diagrams.net" agent="Mozilla/5.0 (Windows NT 10.0; Win64; x64) AppleWebKit/537.36 (KHTML, like Gecko) Chrome/127.0.0.0 Safari/537.36" version="24.7.6">
  <diagram name="Trang-1" id="IHP_7JgK05vR3rJyTB-W">
    <mxGraphModel dx="989" dy="538" grid="1" gridSize="10" guides="1" tooltips="1" connect="1" arrows="1" fold="1" page="1" pageScale="1" pageWidth="827" pageHeight="1169" math="0" shadow="0">
      <root>
        <mxCell id="0" />
        <mxCell id="1" parent="0" />
        <mxCell id="odW5848WNxoakxGEA1j9-1" value="C2C Server" style="rounded=0;whiteSpace=wrap;html=1;" vertex="1" parent="1">
          <mxGeometry x="99" y="20" width="120" height="60" as="geometry" />
        </mxCell>
        <mxCell id="odW5848WNxoakxGEA1j9-4" value="Client App" style="rounded=0;whiteSpace=wrap;html=1;" vertex="1" parent="1">
          <mxGeometry x="659" y="20.000000000000014" width="120" height="60" as="geometry" />
        </mxCell>
        <mxCell id="odW5848WNxoakxGEA1j9-5" value="Manage ID, Ping/pong response, request" style="rounded=1;whiteSpace=wrap;html=1;" vertex="1" parent="1">
          <mxGeometry x="50" y="150" width="110" height="60" as="geometry" />
        </mxCell>
        <mxCell id="odW5848WNxoakxGEA1j9-6" value="" style="endArrow=none;html=1;rounded=0;exitX=0.5;exitY=0;exitDx=0;exitDy=0;" edge="1" parent="1">
          <mxGeometry width="50" height="50" relative="1" as="geometry">
            <mxPoint x="99" y="150" as="sourcePoint" />
            <mxPoint x="159" y="80" as="targetPoint" />
            <Array as="points">
              <mxPoint x="100" y="110" />
              <mxPoint x="159" y="110" />
            </Array>
          </mxGeometry>
        </mxCell>
        <mxCell id="odW5848WNxoakxGEA1j9-8" value="" style="endArrow=classic;html=1;rounded=0;exitX=0.997;exitY=0.378;exitDx=0;exitDy=0;entryX=0;entryY=0.25;entryDx=0;entryDy=0;exitPerimeter=0;" edge="1" parent="1" source="odW5848WNxoakxGEA1j9-14" target="odW5848WNxoakxGEA1j9-4">
          <mxGeometry width="50" height="50" relative="1" as="geometry">
            <mxPoint x="220" y="40" as="sourcePoint" />
            <mxPoint x="599" y="30" as="targetPoint" />
          </mxGeometry>
        </mxCell>
        <mxCell id="odW5848WNxoakxGEA1j9-7" value="" style="endArrow=classic;html=1;rounded=0;entryX=1;entryY=0.75;entryDx=0;entryDy=0;exitX=0.007;exitY=0.369;exitDx=0;exitDy=0;exitPerimeter=0;" edge="1" parent="1" source="odW5848WNxoakxGEA1j9-115" target="odW5848WNxoakxGEA1j9-1">
          <mxGeometry width="50" height="50" relative="1" as="geometry">
            <mxPoint x="319" y="280" as="sourcePoint" />
            <mxPoint x="369" y="230" as="targetPoint" />
            <Array as="points" />
          </mxGeometry>
        </mxCell>
        <mxCell id="odW5848WNxoakxGEA1j9-9" value="Receive Data from API, WinForm app(UI/UX) with full interface" style="rounded=1;whiteSpace=wrap;html=1;" vertex="1" parent="1">
          <mxGeometry x="169" y="150" width="120" height="60" as="geometry" />
        </mxCell>
        <mxCell id="odW5848WNxoakxGEA1j9-10" value="" style="endArrow=none;html=1;rounded=0;entryX=0.54;entryY=0.987;entryDx=0;entryDy=0;entryPerimeter=0;" edge="1" parent="1" target="odW5848WNxoakxGEA1j9-1">
          <mxGeometry width="50" height="50" relative="1" as="geometry">
            <mxPoint x="220" y="150" as="sourcePoint" />
            <mxPoint x="369" y="230" as="targetPoint" />
            <Array as="points">
              <mxPoint x="220" y="110" />
              <mxPoint x="164" y="110" />
            </Array>
          </mxGeometry>
        </mxCell>
        <mxCell id="odW5848WNxoakxGEA1j9-11" value="Keep-Alive with&lt;div&gt;Client ID&lt;/div&gt;" style="rounded=1;whiteSpace=wrap;html=1;" vertex="1" parent="1">
          <mxGeometry x="369" y="80" width="120" height="60" as="geometry" />
        </mxCell>
        <mxCell id="odW5848WNxoakxGEA1j9-12" value="" style="endArrow=classic;html=1;rounded=0;entryX=1;entryY=0.5;entryDx=0;entryDy=0;exitX=0.5;exitY=0;exitDx=0;exitDy=0;" edge="1" parent="1" source="odW5848WNxoakxGEA1j9-11" target="odW5848WNxoakxGEA1j9-1">
          <mxGeometry width="50" height="50" relative="1" as="geometry">
            <mxPoint x="319" y="280" as="sourcePoint" />
            <mxPoint x="369" y="230" as="targetPoint" />
            <Array as="points">
              <mxPoint x="329" y="50" />
            </Array>
          </mxGeometry>
        </mxCell>
        <mxCell id="odW5848WNxoakxGEA1j9-13" value="" style="endArrow=classic;html=1;rounded=0;entryX=0.5;entryY=1;entryDx=0;entryDy=0;exitX=0.425;exitY=0.033;exitDx=0;exitDy=0;exitPerimeter=0;" edge="1" parent="1" source="odW5848WNxoakxGEA1j9-22" target="odW5848WNxoakxGEA1j9-11">
          <mxGeometry width="50" height="50" relative="1" as="geometry">
            <mxPoint x="319" y="280" as="sourcePoint" />
            <mxPoint x="369" y="230" as="targetPoint" />
          </mxGeometry>
        </mxCell>
        <mxCell id="odW5848WNxoakxGEA1j9-15" value="" style="endArrow=classic;html=1;rounded=0;exitX=1;exitY=0.25;exitDx=0;exitDy=0;entryX=0.071;entryY=0.375;entryDx=0;entryDy=0;entryPerimeter=0;" edge="1" parent="1" source="odW5848WNxoakxGEA1j9-1" target="odW5848WNxoakxGEA1j9-14">
          <mxGeometry width="50" height="50" relative="1" as="geometry">
            <mxPoint x="219" y="35" as="sourcePoint" />
            <mxPoint x="659" y="35" as="targetPoint" />
          </mxGeometry>
        </mxCell>
        <mxCell id="odW5848WNxoakxGEA1j9-14" value="CMD Remote" style="ellipse;whiteSpace=wrap;html=1;" vertex="1" parent="1">
          <mxGeometry x="394" y="20" width="70" height="40" as="geometry" />
        </mxCell>
        <mxCell id="odW5848WNxoakxGEA1j9-17" value="Remote Process via Thread Hijacking" style="rounded=1;whiteSpace=wrap;html=1;align=center;" vertex="1" parent="1">
          <mxGeometry x="659" y="130" width="120" height="60" as="geometry" />
        </mxCell>
        <mxCell id="odW5848WNxoakxGEA1j9-18" value="" style="endArrow=classic;html=1;rounded=0;entryX=0.5;entryY=0;entryDx=0;entryDy=0;exitX=0.5;exitY=1;exitDx=0;exitDy=0;exitPerimeter=0;" edge="1" parent="1" source="odW5848WNxoakxGEA1j9-4" target="odW5848WNxoakxGEA1j9-17">
          <mxGeometry width="50" height="50" relative="1" as="geometry">
            <mxPoint x="319" y="280" as="sourcePoint" />
            <mxPoint x="369" y="230" as="targetPoint" />
          </mxGeometry>
        </mxCell>
        <mxCell id="odW5848WNxoakxGEA1j9-19" value="" style="endArrow=classic;html=1;rounded=0;exitX=0.5;exitY=1;exitDx=0;exitDy=0;entryX=0.5;entryY=0;entryDx=0;entryDy=0;" edge="1" parent="1" source="odW5848WNxoakxGEA1j9-17" target="odW5848WNxoakxGEA1j9-20">
          <mxGeometry width="50" height="50" relative="1" as="geometry">
            <mxPoint x="319" y="280" as="sourcePoint" />
            <mxPoint x="725" y="240" as="targetPoint" />
          </mxGeometry>
        </mxCell>
        <mxCell id="odW5848WNxoakxGEA1j9-20" value="Trigger Payload, use schtask as startup method, hide process" style="rounded=1;whiteSpace=wrap;html=1;" vertex="1" parent="1">
          <mxGeometry x="659" y="240" width="120" height="60" as="geometry" />
        </mxCell>
        <mxCell id="odW5848WNxoakxGEA1j9-21" value="" style="endArrow=none;html=1;rounded=0;entryX=0;entryY=0.5;entryDx=0;entryDy=0;exitX=1;exitY=0.5;exitDx=0;exitDy=0;" edge="1" parent="1" source="odW5848WNxoakxGEA1j9-22" target="odW5848WNxoakxGEA1j9-20">
          <mxGeometry width="50" height="50" relative="1" as="geometry">
            <mxPoint x="499" y="270" as="sourcePoint" />
            <mxPoint x="369" y="230" as="targetPoint" />
          </mxGeometry>
        </mxCell>
        <mxCell id="odW5848WNxoakxGEA1j9-22" value="Await command from C2C Server" style="rounded=0;whiteSpace=wrap;html=1;" vertex="1" parent="1">
          <mxGeometry x="379" y="240" width="120" height="60" as="geometry" />
        </mxCell>
        <mxCell id="odW5848WNxoakxGEA1j9-23" value="" style="endArrow=none;html=1;rounded=0;entryX=0.54;entryY=0.993;entryDx=0;entryDy=0;entryPerimeter=0;exitX=0.23;exitY=0.005;exitDx=0;exitDy=0;exitPerimeter=0;" edge="1" parent="1" source="odW5848WNxoakxGEA1j9-24">
          <mxGeometry width="50" height="50" relative="1" as="geometry">
            <mxPoint x="99" y="260" as="sourcePoint" />
            <mxPoint x="103.79999999999995" y="209.58000000000004" as="targetPoint" />
          </mxGeometry>
        </mxCell>
        <mxCell id="odW5848WNxoakxGEA1j9-24" value="&lt;div&gt;No condition rn. At least I have no idea for write down.&lt;/div&gt;&lt;div&gt;&lt;br&gt;&lt;/div&gt;if (IPAlive = true) {&lt;div&gt;//Inject code for manage action from C2C&lt;div&gt;&lt;div&gt;&lt;span style=&quot;background-color: initial;&quot;&gt;} else {&lt;/span&gt;&lt;/div&gt;&lt;div&gt;&lt;span style=&quot;background-color: initial;&quot;&gt;//Delete currect IP from IP list&lt;/span&gt;&lt;/div&gt;&lt;div&gt;&lt;span style=&quot;background-color: initial;&quot;&gt;}&lt;/span&gt;&lt;/div&gt;&lt;/div&gt;&lt;/div&gt;&lt;div&gt;&lt;span style=&quot;background-color: initial;&quot;&gt;&lt;br&gt;&lt;/span&gt;&lt;/div&gt;&lt;div&gt;&lt;span style=&quot;background-color: initial;&quot;&gt;Inject code for Selenium remote&lt;br&gt;I DON&#39;T GIVE A FUCK with idiot ChromeDriver, absolute bullshit.&lt;/span&gt;&lt;/div&gt;&lt;div&gt;&lt;span style=&quot;background-color: initial;&quot;&gt;&lt;br&gt;&lt;/span&gt;&lt;/div&gt;&lt;div&gt;&lt;span style=&quot;background-color: initial;&quot;&gt;Ping/pong for trigger&amp;nbsp;&lt;/span&gt;&lt;span style=&quot;background-color: initial;&quot;&gt;condition&lt;/span&gt;&lt;span style=&quot;background-color: initial;&quot;&gt;&amp;nbsp;check IPAlive&lt;/span&gt;&lt;/div&gt;&lt;div&gt;&lt;span style=&quot;background-color: initial;&quot;&gt;and process itself.&lt;/span&gt;&lt;/div&gt;" style="whiteSpace=wrap;html=1;aspect=fixed;align=left;" vertex="1" parent="1">
          <mxGeometry x="49" y="240" width="240" height="240" as="geometry" />
        </mxCell>
        <mxCell id="odW5848WNxoakxGEA1j9-96" value="WinForm App" style="swimlane;html=1;startSize=20;horizontal=0;childLayout=flowLayout;flowOrientation=west;resizable=0;interRankCellSpacing=50;containerType=tree;fontSize=12;" vertex="1" parent="1">
          <mxGeometry x="309" y="330" width="460" height="150" as="geometry" />
        </mxCell>
        <mxCell id="odW5848WNxoakxGEA1j9-97" value="Server" style="whiteSpace=wrap;html=1;" vertex="1" parent="odW5848WNxoakxGEA1j9-96">
          <mxGeometry x="40" y="55" width="100" height="40" as="geometry" />
        </mxCell>
        <mxCell id="odW5848WNxoakxGEA1j9-98" value="Send Start Action" style="whiteSpace=wrap;html=1;" vertex="1" parent="odW5848WNxoakxGEA1j9-96">
          <mxGeometry x="190" y="20" width="100" height="40" as="geometry" />
        </mxCell>
        <mxCell id="odW5848WNxoakxGEA1j9-99" value="" style="html=1;rounded=1;curved=0;sourcePerimeterSpacing=0;targetPerimeterSpacing=0;startSize=6;endSize=6;noEdgeStyle=1;orthogonal=1;" edge="1" parent="odW5848WNxoakxGEA1j9-96" source="odW5848WNxoakxGEA1j9-97" target="odW5848WNxoakxGEA1j9-98">
          <mxGeometry relative="1" as="geometry">
            <Array as="points">
              <mxPoint x="152" y="67.5" />
              <mxPoint x="178" y="40" />
            </Array>
          </mxGeometry>
        </mxCell>
        <mxCell id="odW5848WNxoakxGEA1j9-100" value="Force Stop" style="whiteSpace=wrap;html=1;" vertex="1" parent="odW5848WNxoakxGEA1j9-96">
          <mxGeometry x="190" y="90" width="100" height="40" as="geometry" />
        </mxCell>
        <mxCell id="odW5848WNxoakxGEA1j9-101" value="" style="html=1;rounded=1;curved=0;sourcePerimeterSpacing=0;targetPerimeterSpacing=0;startSize=6;endSize=6;noEdgeStyle=1;orthogonal=1;" edge="1" parent="odW5848WNxoakxGEA1j9-96" source="odW5848WNxoakxGEA1j9-97" target="odW5848WNxoakxGEA1j9-100">
          <mxGeometry relative="1" as="geometry">
            <Array as="points">
              <mxPoint x="152" y="82.5" />
              <mxPoint x="178" y="110" />
            </Array>
          </mxGeometry>
        </mxCell>
        <mxCell id="odW5848WNxoakxGEA1j9-102" value="Client" style="whiteSpace=wrap;html=1;" vertex="1" parent="odW5848WNxoakxGEA1j9-96">
          <mxGeometry x="340" y="55" width="100" height="40" as="geometry" />
        </mxCell>
        <mxCell id="odW5848WNxoakxGEA1j9-103" value="" style="html=1;rounded=1;curved=0;sourcePerimeterSpacing=0;targetPerimeterSpacing=0;startSize=6;endSize=6;noEdgeStyle=1;orthogonal=1;" edge="1" parent="odW5848WNxoakxGEA1j9-96" source="odW5848WNxoakxGEA1j9-98" target="odW5848WNxoakxGEA1j9-102">
          <mxGeometry relative="1" as="geometry">
            <Array as="points">
              <mxPoint x="302" y="40" />
              <mxPoint x="328" y="67.5" />
            </Array>
          </mxGeometry>
        </mxCell>
        <mxCell id="odW5848WNxoakxGEA1j9-104" value="" style="html=1;rounded=1;curved=0;sourcePerimeterSpacing=0;targetPerimeterSpacing=0;startSize=6;endSize=6;noEdgeStyle=1;orthogonal=1;" edge="1" parent="odW5848WNxoakxGEA1j9-96" source="odW5848WNxoakxGEA1j9-100" target="odW5848WNxoakxGEA1j9-102">
          <mxGeometry relative="1" as="geometry">
            <Array as="points">
              <mxPoint x="302" y="110" />
              <mxPoint x="328" y="82.5" />
            </Array>
          </mxGeometry>
        </mxCell>
        <mxCell id="odW5848WNxoakxGEA1j9-106" value="" style="endArrow=none;html=1;rounded=0;exitX=0.022;exitY=0;exitDx=0;exitDy=0;exitPerimeter=0;" edge="1" parent="1" source="odW5848WNxoakxGEA1j9-96">
          <mxGeometry width="50" height="50" relative="1" as="geometry">
            <mxPoint x="319" y="350" as="sourcePoint" />
            <mxPoint x="290" y="170" as="targetPoint" />
            <Array as="points">
              <mxPoint x="319" y="170" />
            </Array>
          </mxGeometry>
        </mxCell>
        <mxCell id="odW5848WNxoakxGEA1j9-108" value="JSON Response" style="swimlane;fontStyle=0;childLayout=stackLayout;horizontal=1;startSize=30;horizontalStack=0;resizeParent=1;resizeParentMax=0;resizeLast=0;collapsible=1;marginBottom=0;whiteSpace=wrap;html=1;" vertex="1" parent="1">
          <mxGeometry x="510" y="110" width="140" height="120" as="geometry" />
        </mxCell>
        <mxCell id="odW5848WNxoakxGEA1j9-109" value="Client ID" style="text;strokeColor=none;fillColor=none;align=left;verticalAlign=middle;spacingLeft=4;spacingRight=4;overflow=hidden;points=[[0,0.5],[1,0.5]];portConstraint=eastwest;rotatable=0;whiteSpace=wrap;html=1;" vertex="1" parent="odW5848WNxoakxGEA1j9-108">
          <mxGeometry y="30" width="140" height="30" as="geometry" />
        </mxCell>
        <mxCell id="odW5848WNxoakxGEA1j9-110" value="Worker Status" style="text;strokeColor=none;fillColor=none;align=left;verticalAlign=middle;spacingLeft=4;spacingRight=4;overflow=hidden;points=[[0,0.5],[1,0.5]];portConstraint=eastwest;rotatable=0;whiteSpace=wrap;html=1;" vertex="1" parent="odW5848WNxoakxGEA1j9-108">
          <mxGeometry y="60" width="140" height="30" as="geometry" />
        </mxCell>
        <mxCell id="odW5848WNxoakxGEA1j9-111" value="Keep-Alive Counter" style="text;strokeColor=none;fillColor=none;align=left;verticalAlign=middle;spacingLeft=4;spacingRight=4;overflow=hidden;points=[[0,0.5],[1,0.5]];portConstraint=eastwest;rotatable=0;whiteSpace=wrap;html=1;" vertex="1" parent="odW5848WNxoakxGEA1j9-108">
          <mxGeometry y="90" width="140" height="30" as="geometry" />
        </mxCell>
        <mxCell id="odW5848WNxoakxGEA1j9-112" value="" style="endArrow=none;html=1;rounded=0;exitX=1;exitY=0.25;exitDx=0;exitDy=0;entryX=0.5;entryY=0;entryDx=0;entryDy=0;" edge="1" parent="1" source="odW5848WNxoakxGEA1j9-11" target="odW5848WNxoakxGEA1j9-108">
          <mxGeometry width="50" height="50" relative="1" as="geometry">
            <mxPoint x="440" y="210" as="sourcePoint" />
            <mxPoint x="570" y="95" as="targetPoint" />
            <Array as="points">
              <mxPoint x="580" y="95" />
            </Array>
          </mxGeometry>
        </mxCell>
        <mxCell id="odW5848WNxoakxGEA1j9-113" value="A highly quiet client payload that camouflage itself to prevent the user from terminating it&lt;div&gt;Every time the user logs onto Windows and has an internet connection, Trigger Payload&lt;br&gt;&lt;/div&gt;" style="rounded=0;whiteSpace=wrap;html=1;" vertex="1" parent="1">
          <mxGeometry x="520" y="490" width="249" height="70" as="geometry" />
        </mxCell>
        <mxCell id="odW5848WNxoakxGEA1j9-114" value="" style="endArrow=classic;html=1;rounded=0;entryX=0.965;entryY=0.369;entryDx=0;entryDy=0;exitX=0;exitY=0.75;exitDx=0;exitDy=0;entryPerimeter=0;" edge="1" parent="1" source="odW5848WNxoakxGEA1j9-4" target="odW5848WNxoakxGEA1j9-115">
          <mxGeometry width="50" height="50" relative="1" as="geometry">
            <mxPoint x="659" y="65" as="sourcePoint" />
            <mxPoint x="219" y="65" as="targetPoint" />
            <Array as="points" />
          </mxGeometry>
        </mxCell>
        <mxCell id="odW5848WNxoakxGEA1j9-115" value="Ver Checker" style="ellipse;whiteSpace=wrap;html=1;" vertex="1" parent="1">
          <mxGeometry x="520" y="50" width="100" height="40" as="geometry" />
        </mxCell>
        <mxCell id="odW5848WNxoakxGEA1j9-116" value="Send Response&lt;div&gt;&amp;amp;&lt;br&gt;Receive Command&lt;/div&gt;" style="rounded=1;whiteSpace=wrap;html=1;" vertex="1" parent="1">
          <mxGeometry x="240" y="80" width="120" height="60" as="geometry" />
        </mxCell>
        <mxCell id="odW5848WNxoakxGEA1j9-118" value="" style="endArrow=classic;startArrow=classic;html=1;rounded=0;entryX=0;entryY=0.25;entryDx=0;entryDy=0;exitX=0.75;exitY=1;exitDx=0;exitDy=0;" edge="1" parent="1" source="odW5848WNxoakxGEA1j9-1" target="odW5848WNxoakxGEA1j9-116">
          <mxGeometry width="50" height="50" relative="1" as="geometry">
            <mxPoint x="190" y="160" as="sourcePoint" />
            <mxPoint x="240" y="110" as="targetPoint" />
            <Array as="points">
              <mxPoint x="189" y="95" />
            </Array>
          </mxGeometry>
        </mxCell>
        <mxCell id="odW5848WNxoakxGEA1j9-119" value="" style="endArrow=classic;startArrow=classic;html=1;rounded=0;entryX=0.862;entryY=0.999;entryDx=0;entryDy=0;entryPerimeter=0;exitX=0;exitY=0.5;exitDx=0;exitDy=0;" edge="1" parent="1" source="odW5848WNxoakxGEA1j9-22" target="odW5848WNxoakxGEA1j9-116">
          <mxGeometry width="50" height="50" relative="1" as="geometry">
            <mxPoint x="320" y="240" as="sourcePoint" />
            <mxPoint x="370" y="190" as="targetPoint" />
            <Array as="points">
              <mxPoint x="343" y="270" />
            </Array>
          </mxGeometry>
        </mxCell>
        <mxCell id="odW5848WNxoakxGEA1j9-120" value="" style="endArrow=none;html=1;rounded=0;entryX=1;entryY=0.5;entryDx=0;entryDy=0;" edge="1" parent="1" target="odW5848WNxoakxGEA1j9-4">
          <mxGeometry width="50" height="50" relative="1" as="geometry">
            <mxPoint x="770" y="520" as="sourcePoint" />
            <mxPoint x="360" y="230" as="targetPoint" />
            <Array as="points">
              <mxPoint x="800" y="520" />
              <mxPoint x="800" y="50" />
            </Array>
          </mxGeometry>
        </mxCell>
        <mxCell id="odW5848WNxoakxGEA1j9-121" value="" style="endArrow=none;html=1;rounded=0;entryX=0;entryY=0.5;entryDx=0;entryDy=0;exitX=0;exitY=0.437;exitDx=0;exitDy=0;exitPerimeter=0;" edge="1" parent="1" source="odW5848WNxoakxGEA1j9-122" target="odW5848WNxoakxGEA1j9-1">
          <mxGeometry width="50" height="50" relative="1" as="geometry">
            <mxPoint x="40" y="520" as="sourcePoint" />
            <mxPoint x="360" y="230" as="targetPoint" />
            <Array as="points">
              <mxPoint x="40" y="520" />
              <mxPoint x="40" y="50" />
            </Array>
          </mxGeometry>
        </mxCell>
        <mxCell id="odW5848WNxoakxGEA1j9-122" value="Let&#39;s utilize JS/TS Backend with an HTML Landing Page for API docs or something similar, and just use fucking free hosting." style="rounded=0;whiteSpace=wrap;html=1;" vertex="1" parent="1">
          <mxGeometry x="49" y="490" width="241" height="70" as="geometry" />
        </mxCell>
        <mxCell id="odW5848WNxoakxGEA1j9-123" value="(.NET Framework) &amp;gt;= 4.7.2&lt;div&gt;SQL or JSON or .txt Dataset&lt;/div&gt;&lt;div&gt;Separate x32/x64 support&lt;/div&gt;" style="rounded=0;whiteSpace=wrap;html=1;" vertex="1" parent="1">
          <mxGeometry x="309" y="490" width="201" height="70" as="geometry" />
        </mxCell>
        <mxCell id="odW5848WNxoakxGEA1j9-124" value="" style="endArrow=none;html=1;rounded=0;entryX=0.5;entryY=0;entryDx=0;entryDy=0;" edge="1" parent="1" target="odW5848WNxoakxGEA1j9-123">
          <mxGeometry width="50" height="50" relative="1" as="geometry">
            <mxPoint x="410" y="480" as="sourcePoint" />
            <mxPoint x="360" y="310" as="targetPoint" />
          </mxGeometry>
        </mxCell>
      </root>
    </mxGraphModel>
  </diagram>
</mxfile>
